<?xml version="1.0" standalone="no"?>
<!DOCTYPE svg PUBLIC "-//W3C//DTD SVG 20010904//EN"
 "http://www.w3.org/TR/2001/REC-SVG-20010904/DTD/svg10.dtd">
<svg version="1.0" xmlns="http://www.w3.org/2000/svg"
 width="612.000000pt" height="612.000000pt" viewBox="0 0 612.000000 612.000000"
 preserveAspectRatio="xMidYMid meet">
<metadata>
Created by potrace 1.14, written by Peter Selinger 2001-2017
</metadata>
<g transform="translate(0.000000,612.000000) scale(0.100000,-0.100000)"
fill="#000000" stroke="none">
<path d="M3026 5119 c-142 -49 -231 -152 -287 -334 -22 -72 -40 -95 -73 -95
-57 0 -60 78 -7 179 17 34 27 61 22 61 -15 0 -81 -81 -106 -130 -63 -125 -95
-273 -61 -286 7 -3 26 8 42 24 26 26 38 29 114 35 111 7 140 -7 140 -69 0 -50
-23 -62 -144 -73 -158 -15 -192 -27 -229 -81 -20 -28 -24 -125 -5 -136 6 -4
21 5 34 21 24 30 74 42 182 44 75 2 118 -67 73 -116 -16 -17 -37 -22 -118 -27
-217 -15 -263 -42 -263 -155 0 -58 16 -74 41 -42 24 30 68 41 161 41 89 0 118
-17 118 -70 0 -51 -30 -70 -107 -70 -95 -1 -208 -17 -242 -34 -34 -18 -54 -61
-54 -117 0 -58 15 -68 53 -35 29 24 38 26 130 26 114 0 143 -14 143 -68 0 -61
-18 -69 -171 -74 -166 -5 -202 -18 -227 -80 -16 -40 -14 -103 4 -121 4 -4 20
4 35 18 25 23 34 25 132 25 98 0 107 -2 129 -25 28 -27 32 -62 11 -91 -13 -17
-31 -20 -173 -24 -173 -6 -193 -12 -215 -65 -16 -39 -17 -110 -1 -126 10 -10
18 -8 37 10 23 21 31 23 134 19 126 -3 152 -16 152 -73 0 -62 -18 -67 -204
-64 -137 3 -168 1 -180 -11 -8 -8 -31 -76 -51 -150 -74 -268 -40 -406 137
-549 168 -136 552 -280 960 -361 32 -6 59 -17 62 -26 3 -8 -25 -90 -62 -182
-106 -264 -114 -266 -79 -26 19 127 22 172 13 181 -6 6 -53 16 -105 23 -76 9
-97 8 -107 -2 -7 -8 -23 -107 -39 -243 -32 -273 -31 -396 4 -468 29 -61 98
-122 179 -160 59 -28 77 -32 152 -32 67 0 93 5 125 22 45 24 125 104 148 149
8 16 68 178 132 359 65 182 119 332 121 334 2 2 43 11 92 21 155 31 248 92
330 214 55 82 115 242 101 268 -12 21 -116 87 -261 167 -140 76 -158 99 -121
149 29 39 61 38 145 -4 152 -76 206 -113 218 -150 6 -19 17 -34 24 -34 30 0
76 81 76 133 0 30 -7 40 -52 75 -54 41 -151 100 -269 165 -77 43 -93 73 -61
116 32 44 69 39 175 -19 165 -93 177 -102 189 -142 6 -21 17 -38 24 -38 33 0
82 106 70 153 -8 32 -119 117 -261 200 -62 35 -115 73 -122 86 -16 33 1 76 37
91 32 13 68 -2 215 -91 91 -54 113 -74 124 -115 10 -38 30 -37 58 5 30 45 39
96 22 128 -21 38 -128 122 -259 200 -110 67 -115 71 -118 106 -4 42 24 77 61
77 28 0 237 -122 284 -166 21 -20 33 -41 33 -58 0 -64 71 -4 86 73 13 63 -84
160 -276 276 -52 32 -98 63 -102 69 -14 21 -8 66 12 86 39 39 79 25 253 -93
89 -61 107 -80 107 -116 0 -29 18 -36 42 -14 25 22 48 73 48 109 0 40 -116
154 -240 234 -58 38 -115 78 -128 89 -32 29 -27 77 11 104 l27 21 48 -23 c60
-29 197 -120 240 -160 25 -23 32 -38 32 -66 0 -29 3 -36 17 -33 23 4 60 61 74
112 28 102 2 311 -55 439 -86 195 -320 399 -644 560 -117 58 -127 61 -195 61
-154 -1 -246 -82 -298 -262 -26 -90 -42 -112 -84 -112 -65 0 -83 41 -59 137
31 126 83 212 166 273 l38 28 -29 5 c-49 10 -163 -12 -227 -43 -105 -51 -176
-149 -223 -306 -24 -83 -37 -97 -83 -92 -49 5 -62 38 -43 114 34 134 120 256
213 303 23 12 42 24 42 26 0 12 -81 2 -134 -16z m229 -560 c194 -20 327 -57
533 -151 96 -43 117 -56 127 -82 14 -32 11 -51 -13 -78 -24 -28 -61 -21 -163
28 -195 96 -365 137 -619 153 -158 10 -180 19 -180 76 0 31 20 58 50 67 19 6
137 0 265 -13z m-1 -319 c143 -24 313 -79 465 -151 89 -42 113 -57 118 -77 15
-61 -38 -108 -95 -85 -15 6 -79 34 -142 62 -196 85 -364 125 -585 138 -96 5
-112 9 -132 29 -29 29 -29 68 -2 95 21 21 28 22 138 16 64 -3 170 -15 235 -27z
m-129 -300 c143 -24 315 -77 473 -145 125 -54 162 -80 162 -115 0 -27 -39 -70
-64 -70 -13 0 -70 21 -127 46 -217 94 -399 143 -619 165 -107 11 -127 15 -147
35 -30 30 -29 59 3 90 24 25 27 26 117 19 51 -4 142 -15 202 -25z m-166 -295
c187 -28 435 -103 634 -193 76 -35 96 -65 75 -110 -25 -51 -53 -50 -189 5
-236 96 -402 143 -583 164 -151 17 -174 25 -183 57 -9 34 -5 52 14 75 20 22
88 22 232 2z m-39 -316 c134 -25 299 -74 469 -138 174 -66 195 -79 199 -119 8
-83 -39 -96 -163 -46 -234 95 -476 163 -657 185 -113 14 -138 28 -138 79 0 17
9 39 21 51 19 19 28 20 92 14 40 -4 119 -16 177 -26z m-164 -294 c250 -43 719
-198 744 -245 23 -43 5 -86 -42 -103 -10 -4 -75 15 -150 44 -241 91 -492 159
-648 175 -48 5 -70 13 -87 30 -48 48 -16 114 56 114 21 0 78 -7 127 -15z
m-541 -231 c10 -10 14 -25 11 -38 -3 -12 -15 -66 -27 -121 -29 -139 -24 -232
16 -310 28 -55 53 -80 161 -162 28 -22 28 -22 4 -14 -161 56 -276 173 -301
306 -19 106 20 322 63 343 33 16 54 14 73 -4z m259 -40 c20 -19 20 -16 -5
-127 -30 -129 -30 -257 -2 -319 30 -65 98 -128 201 -186 124 -70 120 -95 -9
-52 -130 44 -258 137 -303 221 -24 44 -31 69 -34 135 -7 135 30 312 70 332 33
16 64 14 82 -4z m371 -64 c16 -18 16 -24 -4 -125 -31 -152 -30 -248 1 -317 34
-74 89 -118 250 -203 80 -42 133 -76 133 -85 0 -64 -319 45 -438 150 -28 25
-59 66 -78 106 -29 59 -32 72 -31 162 0 133 32 279 67 310 32 27 76 29 100 2z
m450 -1350 c18 -20 17 -20 -9 -20 -61 0 -106 -57 -106 -135 0 -38 5 -52 29
-76 16 -16 40 -29 52 -29 22 0 22 -1 6 -17 -27 -28 -99 -24 -131 6 -94 89 -21
291 105 291 23 0 42 -7 54 -20z"/>
<path d="M3290 948 c-39 -33 -120 -66 -180 -73 -66 -8 -169 9 -223 36 -21 11
-42 18 -45 14 -3 -3 9 -144 27 -313 18 -169 40 -376 49 -460 l16 -152 248 0
c172 0 248 3 248 11 0 14 -88 848 -96 912 -3 26 -9 47 -12 47 -4 -1 -18 -10
-32 -22z"/>
</g>
</svg>
